<?xml version="1.0" encoding="UTF-8"?>
<svg width="21px" height="22px" viewBox="0 0 21 22" version="1.1" xmlns="http://www.w3.org/2000/svg" xmlns:xlink="http://www.w3.org/1999/xlink">
    <!-- Generator: Sketch 46.2 (44496) - http://www.bohemiancoding.com/sketch -->
    <title>lock@1x</title>
    <desc>Created with Sketch.</desc>
    <defs>
        <polygon id="path-1" points="10.2964 23 0 23 0 0.996 10.2964 0.996 20.5928 0.996 20.5928 23 10.2964 23"></polygon>
    </defs>
    <g id="Pages" stroke="none" stroke-width="1" fill="none" fill-rule="evenodd">
        <g id="Retalo-MyAccount-Desktop" transform="translate(-56.000000, -482.000000)">
            <g id="lock" transform="translate(54.000000, 481.000000)">
                <rect id="Rectangle-4" x="0" y="0" width="24" height="24"></rect>
                <g id="Page-1" stroke-width="1" fill-rule="evenodd" transform="translate(2.000000, 0.000000)">
                    <path d="M10.25,15.8589 C9.583,15.8589 9.04,15.3159 9.04,14.6489 C9.04,13.9819 9.583,13.4389 10.25,13.4389 C10.917,13.4389 11.46,13.9819 11.46,14.6489 C11.46,15.3159 10.917,15.8589 10.25,15.8589 M10.25,12.4389 C9.031,12.4389 8.04,13.4299 8.04,14.6489 C8.04,15.6949 8.772,16.5689 9.75,16.7959 L9.75,19.0859 L10.75,19.0859 L10.75,16.7959 C11.728,16.5689 12.46,15.6949 12.46,14.6489 C12.46,13.4299 11.469,12.4389 10.25,12.4389" id="Fill-1" fill="#76808D"></path>
                    <g id="Group-5" transform="translate(0.000000, 0.004400)">
                        <mask id="mask-2" fill="white">
                            <use xlink:href="#path-1"></use>
                        </mask>
                        <g id="Clip-4"></g>
                        <path d="M19.5928,20.5 C19.5928,21.327 18.9198,22 18.0928,22 L2.4998,22 C1.6728,22 0.9998,21.327 0.9998,20.5 L0.9998,11.515 C0.9998,10.688 1.6728,10.015 2.4998,10.015 L18.0928,10.015 C18.9198,10.015 19.5928,10.688 19.5928,11.515 L19.5928,20.5 Z M6.1458,6.071 C6.1458,3.824 7.9738,1.996 10.2198,1.996 C12.4668,1.996 14.2948,3.824 14.2948,6.071 L14.2948,9.015 L6.1458,9.015 L6.1458,6.071 Z M18.0928,9.015 L15.2948,9.015 L15.2948,6.071 C15.2948,3.272 13.0188,0.996 10.2198,0.996 C7.4218,0.996 5.1458,3.272 5.1458,6.071 L5.1458,9.015 L2.4998,9.015 C1.1208,9.015 -0.0002,10.137 -0.0002,11.515 L-0.0002,20.5 C-0.0002,21.879 1.1208,23 2.4998,23 L18.0928,23 C19.4718,23 20.5928,21.879 20.5928,20.5 L20.5928,11.515 C20.5928,10.137 19.4718,9.015 18.0928,9.015 L18.0928,9.015 Z" id="Fill-3" fill="#76808D" mask="url(#mask-2)"></path>
                    </g>
                </g>
            </g>
        </g>
    </g>
</svg>